# xmcd
#
# Track frame offsets: 
#        187
#        18300
#        35797
#        59275
#        73880
#        95852
#        117005
#        134177
#        159522
#        174677
#
# Disc length: 2565 seconds
#
# Revision: 3
# Processed by: cddbd v1.5.2PL0 Copyright (c) Steve Scherf et al.
# Submitted via: ExactAudioCopyFreeDBPlugin 1.0
#
DISCID=960a030a
DTITLE=Elton John - Greatest Hits
DYEAR=1900
DGENRE=
TTITLE0=Your song
TTITLE1=Daniel
TTITLE2=Honky cat
TTITLE3=Goodbye Yellow Brick Road
TTITLE4=Saturday night's alright for fighting
TTITLE5=Rocket man
TTITLE6=Candle in the wind
TTITLE7=Don't let the sun go down on me
TTITLE8=Border song
TTITLE9=Crocodile rock
EXTD=
EXTT0=
EXTT1=
EXTT2=
EXTT3=
EXTT4=
EXTT5=
EXTT6=
EXTT7=
EXTT8=
EXTT9=
PLAYORDER=
